#!OML:ASF E:\Steps\Project 1\Capture day 1\Session 2\Subject.ASF
:FULLY-SPECIFIED
:DEGREES
505
root 8.15633 16.2369 8.17181 -158.63 -1.6103 178.291
lowerback -21.0836 -3.64846 -7.05723
upperback 2.3407 -3.07482 -0.18036
thorax 15.012 -2.00212 2.76873
lowerneck -2.70545 -3.19503 -2.14855
upperneck 19.7997 -3.90089 5.42732
head 6.6021 -1.13092 1.90393
rclavicle -2.0276e-014 -1.19271e-015
rhumerus -43.5008 -20.6036 -74.0463
rradius 31.8907
rwrist -0.571965
rhand -6.57859 -51.726
rfingers 7.12502
rthumb 19.2761 -80.7907
lclavicle -2.0276e-014 -1.19271e-015
lhumerus -26.889 0.23926 80.5667
lradius 36.4574
lwrist 0.873316
lhand -21.7533 -13.2027
lfingers 7.12502
lthumb 4.64701 16.7264
rfemur -44.5929 4.4169 14.1975
rtibia 21.946
rfoot -15.1062 -12.3961
rtoes -38.7016
lfemur -21.4373 -9.1844 -22.6651
ltibia 14.4093
lfoot -10.3848 -2.16984
ltoes -27.118
506
root 8.16541 16.2263 8.07724 -158.623 -1.78924 178.254
lowerback -21.2168 -3.42933 -6.95303
upperback 1.93968 -2.80795 -0.407251
thorax 14.5571 -1.85191 2.54813
lowerneck -0.920831 -3.49985 -1.57233
upperneck 19.3757 -4.24298 5.46392
head 6.15882 -1.24426 1.81992
rclavicle 2.5842e-014 3.18055e-015
rhumerus -45.1977 -20.9867 -73.5846
rradius 32.0322
rwrist -0.790455
rhand -6.44896 -52.8291
rfingers 7.12502
rthumb 19.4007 -81.8813
lclavicle 2.5842e-014 3.18055e-015
lhumerus -27.6033 -0.904565 80.3501
lradius 36.5608
lwrist 0.61834
lhand -21.803 -13.4227
lfingers 7.12502
lthumb 4.59901 16.5074
rfemur -44.0889 4.69214 13.9237
rtibia 20.0367
rfoot -14.5599 -12.0343
rtoes -38.8329
lfemur -21.0552 -9.15534 -22.7093
ltibia 14.4366
lfoot -10.6193 -2.39198
ltoes -27.2233
507
root 8.17873 16.2183 7.98723 -158.63 -1.91205 178.196
lowerback -21.1179 -3.78129 -6.9695
upperback 2.66899 -3.25729 -0.103938
thorax 15.4503 -2.09155 2.73127
lowerneck -3.94827 -3.22947 -2.10475
upperneck 20.057 -3.99982 5.24053
head 6.90395 -1.19521 1.81468
rclavicle 7.35503e-015 5.1684e-015
rhumerus -42.9233 -20.877 -73.986
rradius 31.3502
rwrist -0.468863
rhand -6.63183 -52.5423
rfingers 7.12502
rthumb 19.2249 -81.6121
lclavicle 7.35503e-015 5.1684e-015
lhumerus -25.6997 0.328526 80.4382
lradius 36.3139
lwrist 0.651548
lhand -21.8185 -13.2908
lfingers 7.12502
lthumb 4.58404 16.6396
rfemur -43.6561 4.95063 13.6897
rtibia 18.3588
rfoot -13.7556 -11.8648
rtoes -39.5561
lfemur -20.6876 -9.1119 -22.7635
ltibia 14.4842
lfoot -10.8487 -2.48717
ltoes -28.7231
508
root 8.19201 16.2121 7.89221 -158.698 -1.90931 178.126
lowerback -21.4239 -3.57788 -7.08857
upperback 2.37434 -2.92991 -0.298025
thorax 15.2319 -1.93909 2.68644
lowerneck -2.17086 -3.45385 -1.4378
upperneck 19.7838 -4.199 5.01722
head 6.49292 -1.2443 1.64117
rclavicle 1.31198e-014 2.94201e-014
rhumerus -44.4382 -21.7519 -73.2807
rradius 31.2393
rwrist 0.0202646
rhand -6.85647 -51.6696
rfingers 7.12502
rthumb 19.0089 -80.7607
lclavicle 1.31198e-014 2.94201e-014
lhumerus -26.4334 -0.816147 80.373
lradius 36.4294
lwrist 1.11555
lhand -21.6344 -12.5344
lfingers 7.12502
lthumb 4.76177 17.3921
rfemur -43.2349 5.25268 13.4952
rtibia 17.0819
rfoot -13.3581 -11.8056
rtoes -39.7182
lfemur -20.2024 -9.15216 -22.8507
ltibia 14.4897
lfoot -11.1299 -2.38857
ltoes -29.8004
509
root 8.2061 16.2034 7.79165 -158.816 -2.02534 178.055
lowerback -21.5247 -3.6691 -7.14744
upperback 2.41538 -3.03085 -0.244377
thorax 15.3606 -1.99497 2.74048
lowerneck -2.02029 -3.38799 -1.50488
upperneck 19.828 -4.08565 5.02004
head 6.47811 -1.18891 1.6634
rclavicle -6.16232e-015 1.19271e-015
rhumerus -44.6016 -22.0008 -72.8663
rradius 30.8522
rwrist 0.565795
rhand -6.7888 -51.8039
rfingers 7.12502
rthumb 19.0739 -80.8887
lclavicle -6.16232e-015 1.19271e-015
lhumerus -26.5129 -0.75258 80.3781
lradius 36.5333
lwrist 1.44326
lhand -21.3669 -11.8897
lfingers 7.12502
lthumb 5.02005 18.0308
rfemur -42.6997 5.33943 13.4799
rtibia 16.0605
rfoot -13.0447 -11.774
rtoes -40.1038
lfemur -19.6597 -9.18093 -22.9355
ltibia 14.5413
lfoot -11.3634 -2.4925
ltoes -29.4076
510
root 8.22915 16.2031 7.72327 -159.158 -1.9191 177.752
lowerback -20.8129 -3.65572 -7.62124
upperback 2.29885 -2.95662 -0.278176
thorax 14.8188 -1.98833 3.02802
lowerneck -1.47445 -3.37742 -1.45814
upperneck 19.6543 -4.04447 5.0602
head 6.32586 -1.16303 1.67766
rclavicle -1.51076e-014 2.14687e-014
rhumerus -45.0976 -22.0599 -72.5097
rradius 30.7601
rwrist 0.690402
rhand -6.26287 -52.7705
rfingers 7.12502
rthumb 19.5796 -81.8045
lclavicle -1.51076e-014 2.14687e-014
lhumerus -26.7584 -0.987226 80.3191
lradius 36.6408
lwrist 1.58699
lhand -21.2873 -12.6584
lfingers 7.12502
lthumb 5.09695 17.2603
rfemur -42.2108 5.72532 13.0795
rtibia 15.4242
rfoot -12.5054 -12.1417
rtoes -41.5025
lfemur -19.1635 -9.12026 -23.2038
ltibia 14.8222
lfoot -11.4926 -2.52134
ltoes -29.0892
511
root 8.24692 16.1962 7.62319 -159.278 -1.97964 177.684
lowerback -20.6985 -3.64126 -7.67781
upperback 2.18453 -2.94329 -0.265411
thorax 14.6167 -1.98162 3.08744
lowerneck -1.50989 -3.65843 -1.82014
upperneck 20.0965 -4.41772 5.34479
head 6.50126 -1.31857 1.81098
rclavicle 3.81667e-014 2.14687e-014
rhumerus -45.6167 -21.9984 -72.2356
rradius 30.7974
rwrist 0.651935
rhand -5.87451 -53.1654
rfingers 7.12502
rthumb 19.953 -82.161
lclavicle 3.81667e-014 2.14687e-014
lhumerus -26.9317 -1.02998 80.2108
lradius 36.5684
lwrist 1.25113
lhand -21.8128 -13.6673
lfingers 7.12502
lthumb 4.58958 16.263
rfemur -41.6303 5.81637 13.1593
rtibia 14.7528
rfoot -12.2374 -12.1811
rtoes -41.8635
lfemur -18.6808 -9.08262 -23.27
ltibia 14.9178
lfoot -11.7026 -2.58221
ltoes -30.5761
512
root 8.25522 16.1762 7.48834 -159.056 -2.14075 177.919
lowerback -21.5528 -3.76048 -7.20393
upperback 2.47956 -3.14574 -0.103343
thorax 15.4824 -2.06105 2.89177
lowerneck -2.64529 -3.43361 -1.81379
upperneck 20.4247 -4.1314 5.06352
head 6.78865 -1.20179 1.72349
rclavicle 2.76311e-014 3.26007e-014
rhumerus -44.8969 -22.0793 -72.2466
rradius 30.4545
rwrist 0.902087
rhand -6.01868 -52.9193
rfingers 7.12502
rthumb 19.8144 -81.9293
lclavicle 2.76311e-014 3.26007e-014
lhumerus -26.3455 -0.368996 80.1771
lradius 36.4801
lwrist 1.16058
lhand -22.3031 -13.5692
lfingers 7.12502
lthumb 4.11608 16.3708
rfemur -41.2432 5.40935 13.9143
rtibia 14.2537
rfoot -12.2971 -11.6601
rtoes -40.9605
lfemur -18.3028 -9.12789 -23.0811
ltibia 14.8712
lfoot -12.0486 -2.60692
ltoes -31.7675
